<?xml version="1.0" encoding="UTF-8" standalone="no"?>
<!DOCTYPE svg PUBLIC "-//W3C//DTD SVG 1.1//EN" "http://www.w3.org/Graphics/SVG/1.1/DTD/svg11.dtd">

<!--<svg width="456" height="456" viewBox="0 0 456 456" version="1.1" xmlns="http://www.w3.org/2000/svg" xmlns:xlink="http://www.w3.org/1999/xlink" xml:space="preserve" xmlns:serif="http://www.serif.com/" style="fill-rule:evenodd;clip-rule:evenodd;stroke-linejoin:round;stroke-miterlimit:2;">
    <path d="m 105.50037,281.60863 c -2.70293,0 -5.00091,-0.90042 -6.893127,-2.70209 -1.892214,-1.84778 -2.837901,-4.04181 -2.837901,-6.58209 0,-2.58722 0.945687,-4.80389 2.837901,-6.65167 1.892217,-1.84778 4.190197,-2.77167 6.893127,-2.77167 2.74819,0 5.06798,0.92389 6.96019,2.77167 1.93749,1.84778 2.90581,4.06445 2.90581,6.65167 0,2.54028 -0.96832,4.73431 -2.90581,6.58209 -1.89221,1.80167 -4.212,2.70209 -6.96019,2.70209 z" style="fill:#ffffff;fill-rule:nonzero;stroke-width:0.838376" />
    <path d="M 213.56111,280.08446 H 195.99044 L 149.69953,207.0544 c -1.17121,-1.84778 -2.14037,-3.76515 -2.90581,-5.75126 h -0.40578 c 0.36051,2.12528 0.54076,6.67515 0.54076,13.6496 v 65.13172 h -15.54349 v -99.36009 h 18.71925 l 44.7374,71.29798 c 1.89222,2.95695 3.1087,4.98917 3.64945,6.09751 h 0.26996 c -0.45021,-2.6325 -0.67573,-7.09015 -0.67573,-13.37293 v -64.02256 h 15.47557 z" style="fill:#ffffff;fill-rule:nonzero;stroke-width:0.838376" />
    <path d="m 289.25134,280.08446 h -54.40052 v -99.36009 h 52.23835 v 13.99669 h -36.15411 v 28.13085 h 33.31621 v 13.9271 h -33.31621 v 29.37835 h 38.31628 z" style="fill:#ffffff;fill-rule:nonzero;stroke-width:0.838376" />
    <path d="M 366.56466,194.72106 H 338.7222 v 85.3634 h -16.08423 v -85.3634 h -27.77455 v -13.99669 h 71.70124 z" style="fill:#ffffff;fill-rule:nonzero;stroke-width:0.838376" />
</svg>-->

<svg version="1.0" xmlns="http://www.w3.org/2000/svg" width="256.000000pt" height="256.000000pt" viewBox="0 0 256.000000 256.000000" preserveAspectRatio="xMidYMid meet">

    <g transform="translate(0.000000,256.000000) scale(0.100000,-0.100000)" fill="#000000" stroke="none">
        <path d="M1228 2523 c17 -2 47 -2 65 0 17 2 3 4 -33 4 -36 0 -50 -2 -32 -4z" />
        <path d="M1098 2513 c6 -2 18 -2 25 0 6 3 1 5 -13 5 -14 0 -19 -2 -12 -5z" />
        <path d="M1393 2513 c9 -2 23 -2 30 0 6 3 -1 5 -18 5 -16 0 -22 -2 -12 -5z" />
        <path d="M1038 2503 c7 -3 16 -2 19 1 4 3 -2 6 -13 5 -11 0 -14 -3 -6 -6z" />
        <path d="M1468 2503 c7 -3 16 -2 19 1 4 3 -2 6 -13 5 -11 0 -14 -3 -6 -6z" />
        <path d="M1518 2493 c7 -3 16 -2 19 1 4 3 -2 6 -13 5 -11 0 -14 -3 -6 -6z" />
        <path d="M1558 2483 c7 -3 16 -2 19 1 4 3 -2 6 -13 5 -11 0 -14 -3 -6 -6z" />
        <path d="M1063 2406 c-148 -28 -316 -97 -434 -177 -89 -60 -218 -187 -278 -273 -137 -199 -203 -407 -203 -646 0 -304 109 -569 321 -781 144 -144 315 -242 519 -296 85 -23 118 -26 262 -27 174 -1 227 7 360 51 381 128 670 459 745 856 8 43 15 134 15 202 0 104 -3 124 -17 137 -42 35 -256 99 -433 127 l-105 17 42 25 c37 21 43 29 44 59 1 19 3 50 5 68 1 17 -2 32 -7 32 -6 0 -8 4 -4 9 3 5 -5 11 -17 13 -19 2 -14 8 32 35 52 31 53 33 25 33 l-30 1 25 14 c24 14 21 14 -40 15 l-65 0 60 35 60 34 -55 1 c-39 0 -51 3 -40 10 12 7 8 10 -15 10 l-30 1 35 19 35 19 -28 1 c-18 0 -26 4 -21 11 5 8 -3 10 -24 7 -17 -2 -29 -1 -26 3 2 4 -6 9 -18 11 -22 3 -22 4 7 20 l30 17 -30 2 c-16 2 -43 2 -60 1 -24 -2 -27 0 -15 9 11 8 5 9 -25 5 l-40 -6 35 20 c44 24 34 25 -67 0 -45 -11 -88 -17 -96 -15 -7 3 -33 -1 -57 -10 -23 -8 -45 -13 -48 -10 -3 3 1 5 8 5 7 0 11 3 8 6 -4 3 -31 -6 -62 -20 -76 -35 -80 -33 -16 9 62 39 63 44 2 15 -48 -23 -64 -22 -112 8 -36 23 -50 25 -110 22 -45 -3 -71 -17 -106 -60 -16 -19 -22 -30 -14 -25 12 7 13 6 4 -6 -6 -8 -17 -36 -24 -64 -7 -27 -24 -65 -37 -82 -15 -21 -18 -31 -9 -27 10 4 14 0 13 -14 0 -11 -6 -18 -12 -15 -7 2 -18 -4 -26 -14 -13 -17 -13 -17 6 -4 11 8 -2 -8 -30 -34 -27 -26 -41 -41 -30 -34 11 7 -14 -22 -55 -65 -65 -68 -70 -76 -40 -61 l35 17 -25 -28 c-33 -38 -56 -79 -39 -68 7 4 2 -8 -11 -26 l-25 -34 40 24 c37 22 39 22 22 2 -11 -11 -16 -25 -13 -30 3 -5 -4 -23 -16 -38 -15 -19 -16 -24 -5 -15 21 17 23 -2 2 -19 -28 -23 -7 -23 31 1 37 23 39 15 5 -25 -15 -18 -15 -18 7 -7 52 28 15 -3 -75 -62 -135 -88 -230 -167 -351 -291 l-103 -105 -10 27 c-40 104 -54 199 -53 362 1 144 4 177 27 263 87 327 296 578 603 724 246 117 549 135 804 49 41 -14 75 -24 77 -22 6 5 -77 34 -162 57 -103 27 -345 35 -452 15z m77 -306 c15 -15 20 -33 20 -74 0 -42 4 -55 18 -61 9 -3 161 -60 337 -126 176 -67 324 -124 328 -128 4 -4 -66 -33 -155 -65 -90 -32 -245 -87 -345 -124 l-183 -66 0 -383 c0 -370 -1 -384 -20 -403 -24 -24 -77 -26 -102 -3 -17 15 -18 51 -18 716 0 638 1 702 17 719 22 24 77 24 103 -2z m609 -1334 c40 -21 61 -59 61 -108 0 -50 -19 -82 -60 -103 -69 -36 -148 -2 -171 74 -29 96 79 183 170 137z m309 -2 c20 -8 49 -27 64 -41 24 -23 29 -24 45 -12 23 19 -40 -74 -95 -138 -59 -70 -164 -155 -259 -209 -42 -24 -80 -44 -83 -44 -3 0 -11 15 -18 33 -7 17 -17 39 -22 49 -9 17 -5 21 78 76 73 48 112 124 112 218 0 34 5 58 16 68 20 21 112 21 162 0z m-1058 -39 c0 -60 32 -95 87 -95 60 1 93 38 93 104 0 41 1 41 99 25 79 -12 151 -42 182 -75 49 -52 -11 -108 -151 -141 -111 -26 -357 -23 -464 6 -169 45 -197 129 -60 182 41 16 143 37 182 38 32 1 32 0 32 -44z" />
        <path d="M1840 2376 c0 -3 9 -10 20 -16 11 -6 20 -8 20 -6 0 3 -9 10 -20 16 -11 6 -20 8 -20 6z" />
        <path d="M1910 2333 c137 -99 229 -184 302 -280 59 -76 143 -223 170 -296 11 -31 23 -56 25 -54 15 16 -92 225 -170 330 -91 123 -249 270 -332 308 -13 6 -12 4 5 -8z" />
        <path d="M1691 2326 c10 -9 109 -56 109 -51 0 5 -95 55 -106 55 -4 0 -5 -2 -3 -4z" />
        <path d="M494 2258 l-19 -23 23 19 c21 18 27 26 19 26 -2 0 -12 -10 -23 -22z" />
        <path d="M1810 2266 c0 -3 9 -10 20 -16 11 -6 20 -8 20 -6 0 3 -9 10 -20 16 -11 6 -20 8 -20 6z" />
        <path d="M395 2168 l-60 -63 63 60 c34 33 62 61 62 62 0 8 -10 -1 -65 -59z" />
        <path d="M2039 2085 c91 -99 111 -118 64 -60 -23 28 -61 68 -84 90 -26 24 -17 11 20 -30z" />
        <path d="M309 2073 l-24 -28 28 24 c25 23 32 31 24 31 -2 0 -14 -12 -28 -27z" />
        <path d="M2140 1966 c0 -2 8 -10 18 -17 15 -13 16 -12 3 4 -13 16 -21 21 -21 13z" />
        <path d="M2421 1655 c0 -5 6 -32 13 -60 8 -27 14 -41 14 -30 0 21 -25 107 -27 90z" />
        <path d="M61 1524 c0 -11 3 -14 6 -6 3 7 2 16 -1 19 -3 4 -6 -2 -5 -13z" />
        <path d="M2452 1515 c0 -16 2 -22 5 -12 2 9 2 23 0 30 -3 6 -5 -1 -5 -18z" />
        <path d="M52 1460 c0 -14 2 -19 5 -12 2 6 2 18 0 25 -3 6 -5 1 -5 -13z" />
        <path d="M2465 1310 c0 -98 3 -155 7 -130 3 25 7 83 7 130 0 47 -4 105 -7 130 -4 25 -7 -32 -7 -130z" />
        <path d="M43 1310 c0 -36 2 -50 4 -32 2 17 2 47 0 65 -2 17 -4 3 -4 -33z" />
        <path d="M52 1165 c0 -16 2 -22 5 -12 2 9 2 23 0 30 -3 6 -5 -1 -5 -18z" />
        <path d="M2445 1083 c-19 -131 -109 -340 -202 -472 -132 -186 -346 -353 -550 -427 -40 -15 -72 -29 -70 -31 3 -2 33 7 69 20 343 129 619 425 731 782 25 80 44 175 34 175 -2 0 -8 -21 -12 -47z" />
        <path d="M61 1094 c0 -11 3 -14 6 -6 3 7 2 16 -1 19 -3 4 -6 -2 -5 -13z" />
        <path d="M71 1044 c0 -11 3 -14 6 -6 3 7 2 16 -1 19 -3 4 -6 -2 -5 -13z" />
        <path d="M81 1004 c0 -11 3 -14 6 -6 3 7 2 16 -1 19 -3 4 -6 -2 -5 -13z" />
        <path d="M237 652 c28 -52 144 -188 204 -239 40 -35 33 -25 -28 38 -73 74 -106 113 -176 209 -17 24 -17 24 0 -8z" />
        <path d="M504 362 c8 -13 66 -56 66 -49 0 3 -17 17 -37 33 -20 15 -33 23 -29 16z" />
        <path d="M600 291 c27 -22 173 -101 187 -101 4 0 -28 20 -72 43 -44 23 -93 51 -110 61 l-30 18 25 -21z" />
        <path d="M810 180 c8 -5 20 -10 25 -10 6 0 3 5 -5 10 -8 5 -19 10 -25 10 -5 0 -3 -5 5 -10z" />
        <path d="M925 140 c11 -5 27 -9 35 -9 9 0 8 4 -5 9 -11 5 -27 9 -35 9 -9 0 -8 -4 5 -9z" />
        <path d="M1540 135 c-25 -7 -36 -13 -25 -13 11 0 38 5 60 13 52 17 24 17 -35 0z" />
        <path d="M988 123 c6 -2 18 -2 25 0 6 3 1 5 -13 5 -14 0 -19 -2 -12 -5z" />
        <path d="M1043 113 c9 -2 23 -2 30 0 6 3 -1 5 -18 5 -16 0 -22 -2 -12 -5z" />
        <path d="M1453 113 c9 -2 23 -2 30 0 6 3 -1 5 -18 5 -16 0 -22 -2 -12 -5z" />
        <path d="M1130 98 c58 -8 202 -8 260 0 25 4 -32 7 -130 7 -98 0 -155 -3 -130 -7z" />
    </g>
</svg>